HIERARCHY
ROOT joint_Root
{
	OFFSET 0.0 0.0 0.0
	CHANNELS 6 Xposition Yposition Zposition Zrotation Xrotation Yrotation 
	JOINT Hips
	{
		OFFSET -0.726466 93.3139 -2.00062
		CHANNELS 6 Xposition Yposition Zposition Zrotation Xrotation Yrotation 
		JOINT Spine
		{
			OFFSET 15.7357 0.0 0.0
			CHANNELS 6 Xposition Yposition Zposition Zrotation Xrotation Yrotation 
			JOINT Chest
			{
				OFFSET 8.98455 -0.406207 0.0
				CHANNELS 6 Xposition Yposition Zposition Zrotation Xrotation Yrotation 
				JOINT Neck
				{
					OFFSET 16.3773 0.0 0.0
					CHANNELS 6 Xposition Yposition Zposition Zrotation Xrotation Yrotation 
					JOINT Head
					{
						OFFSET 6.45672 0.0 0.0
						CHANNELS 6 Xposition Yposition Zposition Zrotation Xrotation Yrotation 
						End Site
						{
							OFFSET 0.0 0.0 0.0
						}
					}
				}
				JOINT Shoulder_L
				{
					OFFSET 12.9942 -0.242716 4.98039
					CHANNELS 6 Xposition Yposition Zposition Zrotation Xrotation Yrotation 
					JOINT UpperArm_L
					{
						OFFSET 5.34809 0.0 0.0
						CHANNELS 6 Xposition Yposition Zposition Zrotation Xrotation Yrotation 
						JOINT LowerArm_L
						{
							OFFSET 24.3286 1.87007e-05 0.0
							CHANNELS 6 Xposition Yposition Zposition Zrotation Xrotation Yrotation 
							JOINT Hand_L
							{
								OFFSET 22.2916 0.0 0.0
								CHANNELS 6 Xposition Yposition Zposition Zrotation Xrotation Yrotation 
								End Site
								{
									OFFSET 0.0 0.0 0.0
								}
							}
						}
					}
				}
				JOINT Shoulder_R
				{
					OFFSET 12.9945 -0.242716 -4.98039
					CHANNELS 6 Xposition Yposition Zposition Zrotation Xrotation Yrotation 
					JOINT UpperArm_R
					{
						OFFSET -5.34813 0.0 0.0
						CHANNELS 6 Xposition Yposition Zposition Zrotation Xrotation Yrotation 
						JOINT LowerArm_R
						{
							OFFSET -24.3289 0.000322201 0.0
							CHANNELS 6 Xposition Yposition Zposition Zrotation Xrotation Yrotation 
							JOINT Hand_R
							{
								OFFSET -22.2915 -0.000108084 0.0
								CHANNELS 6 Xposition Yposition Zposition Zrotation Xrotation Yrotation 
								End Site
								{
									OFFSET 0.0 0.0 0.0
								}
							}
						}
					}
				}
			}
		}
		JOINT UpperLeg_L
		{
			OFFSET -2.19248 -6.46944 0.0
			CHANNELS 6 Xposition Yposition Zposition Zrotation Xrotation Yrotation 
			JOINT LowerLeg_L
			{
				OFFSET 39.0811 0.0 -1.23785e-05
				CHANNELS 6 Xposition Yposition Zposition Zrotation Xrotation Yrotation 
				JOINT Foot_L
				{
					OFFSET 40.9854 0.0 -1.26872e-05
					CHANNELS 6 Xposition Yposition Zposition Zrotation Xrotation Yrotation 
					JOINT Toes_L
					{
						OFFSET 11.7543 0.0 0.0
						CHANNELS 6 Xposition Yposition Zposition Zrotation Xrotation Yrotation 
						End Site
						{
							OFFSET 0.0 0.0 0.0
						}
					}
				}
			}
		}
		JOINT UpperLeg_R
		{
			OFFSET -2.19251 6.46944 0.0
			CHANNELS 6 Xposition Yposition Zposition Zrotation Xrotation Yrotation 
			JOINT LowerLeg_R
			{
				OFFSET -39.0811 -0.00228153 -0.0401928
				CHANNELS 6 Xposition Yposition Zposition Zrotation Xrotation Yrotation 
				JOINT Foot_R
				{
					OFFSET -40.9854 0.0 0.0
					CHANNELS 6 Xposition Yposition Zposition Zrotation Xrotation Yrotation 
					JOINT Toes_R
					{
						OFFSET -11.7543 0.0 0.0
						CHANNELS 6 Xposition Yposition Zposition Zrotation Xrotation Yrotation 
						End Site
						{
							OFFSET 0.0 0.0 0.0
						}
					}
				}
			}
		}
	}
}
MOTION
Frames:	8
Frame Time:	0.0333333
0.000000 0.000000 0.000000 0.000000 0.000000 -0.000000 -3.411210 92.938400 -1.294990 89.674300 1.512420 1.954830 15.735700 0.000005 -0.000001 90.725200 86.838200 -90.170400 8.984550 -0.406207 -0.000000 -1.442850 0.035457 1.109630 16.377300 -0.000001 -0.000001 3.761880 -2.863020 1.092110 6.456720 -0.000001 -0.000000 6.934950 -2.861990 -3.684970 12.994200 -0.242716 4.980390 -89.388700 -2.026230 -73.207500 5.348090 -0.000007 -0.000001 -78.936000 -31.127000 -72.172800 24.328600 0.000019 0.000005 8.882910 -2.079150 -103.069000 22.291600 -0.000001 0.000005 16.682200 5.569370 -9.656240 12.994500 -0.242716 -4.980390 87.749700 7.324020 -72.868100 -5.348130 -0.000001 -0.000004 -64.106100 41.094400 -10.655600 -24.328900 0.000322 -0.000009 3.337230 9.298890 -19.848900 -22.291500 -0.000108 -0.000004 6.592880 5.355880 -1.554690 -2.192480 -6.469440 -0.000000 -175.623000 -5.629480 -2.369420 39.081100 -0.000007 -0.000012 -0.061900 0.216629 15.946700 40.985400 -0.000006 -0.000013 -1.778210 6.193270 -61.793200 11.754300 -0.000000 0.000003 -0.000002 -0.000024 -16.578400 -2.192510 6.469440 -0.000001 -179.132000 11.913800 179.293000 -39.081100 -0.002282 -0.040193 -0.048113 0.191911 15.005700 -40.985400 0.000008 0.000006 3.002910 5.169580 -63.037000 -11.754300 -0.000006 -0.000006 -0.006349 -0.073977 -19.584100
0.000000 0.000000 0.000000 0.000000 0.000000 -0.000000 -3.416480 92.938500 -1.291840 89.665400 1.432720 1.890810 15.735700 0.000005 -0.000001 90.790600 86.855400 -90.249100 8.984550 -0.406207 -0.000000 -1.477370 0.043094 1.083140 16.377300 -0.000001 -0.000001 3.678950 -2.836890 1.087680 6.456720 -0.000001 -0.000000 7.010480 -2.816370 -3.686080 12.994200 -0.242716 4.980390 -89.385100 -2.031580 -73.155600 5.348090 -0.000007 -0.000001 -78.595000 -31.269300 -71.510700 24.328600 0.000019 0.000005 8.624530 -2.077030 -103.439000 22.291600 -0.000001 0.000005 16.904100 5.567720 -9.572420 12.994500 -0.242716 -4.980390 87.740000 7.345860 -72.846500 -5.348130 -0.000001 -0.000004 -63.924700 41.179300 -10.772600 -24.328900 0.000322 -0.000009 3.312820 9.202420 -19.903500 -22.291500 -0.000108 -0.000004 6.580490 5.356300 -1.567380 -2.192480 -6.469440 -0.000000 -175.616000 -5.652770 -2.427190 39.081100 -0.000007 -0.000012 -0.061870 0.216486 15.949600 40.985400 -0.000006 -0.000013 -1.784030 6.174340 -61.800000 11.754300 -0.000000 0.000003 -0.000002 -0.000026 -16.578500 -2.192510 6.469440 -0.000001 -179.101000 11.805500 179.214000 -39.081100 -0.002282 -0.040193 -0.048221 0.192259 15.009900 -40.985400 0.000008 0.000006 3.003060 5.151080 -63.026400 -11.754300 -0.000006 -0.000006 -0.006335 -0.073849 -19.578900
0.000000 0.000000 0.000000 0.000000 0.000000 -0.000000 -3.415590 92.937300 -1.289730 89.649400 1.317070 1.835110 15.735700 0.000005 -0.000001 90.868500 86.864700 -90.339200 8.984550 -0.406207 -0.000000 -1.496240 0.052256 1.059020 16.377300 -0.000001 -0.000001 3.581000 -2.779990 1.103920 6.456720 -0.000001 -0.000000 7.143820 -2.756100 -3.671130 12.994200 -0.242716 4.980390 -89.382400 -2.031100 -73.083900 5.348090 -0.000007 -0.000001 -77.486200 -31.330300 -69.784000 24.328600 0.000019 0.000005 7.882620 -1.978210 -104.001000 22.291600 -0.000001 0.000005 17.535400 5.566910 -9.532790 12.994500 -0.242716 -4.980390 87.730600 7.369670 -72.831600 -5.348130 -0.000001 -0.000004 -63.810200 41.069000 -10.913000 -24.328900 0.000322 -0.000009 3.316060 9.238790 -19.849800 -22.291500 -0.000108 -0.000004 6.604060 5.358390 -1.630760 -2.192480 -6.469440 -0.000000 -175.601000 -5.723070 -2.474470 39.081100 -0.000007 -0.000012 -0.061945 0.216482 15.968100 40.985400 -0.000006 -0.000013 -1.788400 6.152230 -61.821100 11.754300 -0.000000 0.000003 -0.000002 -0.000025 -16.578500 -2.192510 6.469440 -0.000001 -179.074000 11.707000 179.153000 -39.081100 -0.002282 -0.040193 -0.048514 0.193326 15.011800 -40.985400 0.000008 0.000006 3.004070 5.168860 -63.022500 -11.754300 -0.000006 -0.000006 -0.006397 -0.074400 -19.601400
0.000000 0.000000 0.000000 0.000000 0.000000 -0.000000 -3.394000 92.939000 -1.275650 89.666000 1.206310 1.903240 15.735700 0.000005 -0.000001 90.753600 86.823800 -90.248300 8.984550 -0.406207 -0.000000 -1.414230 0.043057 1.010810 16.377300 -0.000001 -0.000001 3.429260 -2.736450 1.149350 6.456720 -0.000001 -0.000000 7.251930 -2.639220 -3.626410 12.994200 -0.242716 4.980390 -89.398700 -1.969540 -73.018100 5.348090 -0.000007 -0.000001 -75.152000 -31.330700 -66.630900 24.328600 0.000019 0.000005 7.102230 -1.888330 -104.815000 22.291600 -0.000001 0.000005 17.776100 5.566700 -9.520990 12.994500 -0.242716 -4.980390 87.703000 7.433120 -72.773900 -5.348130 -0.000001 -0.000004 -63.689300 40.912700 -11.052500 -24.328900 0.000322 -0.000009 3.313790 9.241950 -19.831100 -22.291500 -0.000108 -0.000004 6.654880 5.357260 -1.596410 -2.192480 -6.469440 -0.000000 -175.624000 -5.796230 -2.351610 39.081100 -0.000007 -0.000012 -0.061071 0.214062 15.923100 40.985400 -0.000006 -0.000013 -1.774730 6.137780 -61.825200 11.754300 -0.000000 0.000003 -0.000002 -0.000029 -16.578600 -2.192510 6.469440 -0.000001 -179.121000 11.616500 179.220000 -39.081100 -0.002282 -0.040193 -0.048990 0.194965 15.021900 -40.985400 0.000008 0.000006 2.991920 5.197240 -63.025500 -11.754300 -0.000006 -0.000006 -0.006480 -0.075136 -19.631400
0.000000 0.000000 0.000000 0.000000 0.000000 -0.000000 -3.372230 92.937700 -1.265640 89.631100 1.036200 1.913710 15.735700 0.000005 -0.000001 90.944200 86.795700 -90.441000 8.984550 -0.406207 -0.000000 -1.358450 0.065527 1.006760 16.377300 -0.000001 -0.000001 3.276870 -2.703940 1.215210 6.456720 -0.000001 -0.000000 7.261860 -2.554500 -3.636850 12.994200 -0.242716 4.980390 -89.468600 -1.725580 -72.881400 5.348090 -0.000007 -0.000001 -71.543900 -30.790700 -61.943100 24.328600 0.000019 0.000005 7.044390 -1.982650 -105.641000 22.291600 -0.000001 0.000005 17.471200 5.566800 -9.525530 12.994500 -0.242716 -4.980390 87.661900 7.517290 -72.667300 -5.348130 -0.000001 -0.000004 -63.595400 40.678800 -11.173600 -24.328900 0.000322 -0.000009 3.359590 9.351500 -19.869000 -22.291500 -0.000108 -0.000004 6.737660 5.355130 -1.531810 -2.192480 -6.469440 -0.000000 -175.595000 -5.927560 -2.326890 39.081100 -0.000007 -0.000012 -0.062054 0.216905 15.965300 40.985400 -0.000006 -0.000013 -1.768230 6.077920 -61.871500 11.754300 -0.000000 0.000003 -0.000002 -0.000033 -16.578800 -2.192510 6.469440 -0.000001 -179.102000 11.492700 179.242000 -39.081100 -0.002282 -0.040193 -0.048133 0.192040 15.001700 -40.985400 0.000008 0.000006 2.988740 5.273290 -63.014800 -11.754300 -0.000006 -0.000006 -0.006372 -0.074174 -19.592200
0.000000 0.000000 0.000000 0.000000 0.000000 -0.000000 -3.341390 92.931800 -1.243030 89.621000 0.848045 1.856240 15.735700 0.000005 -0.000001 91.124400 86.785500 -90.621000 8.984550 -0.406207 -0.000000 -1.338490 0.086138 1.007480 16.377300 -0.000001 -0.000001 3.068760 -2.692830 1.369450 6.456720 -0.000001 -0.000000 7.294020 -2.455650 -3.794960 12.994200 -0.242716 4.980390 -89.597300 -1.293860 -72.709800 5.348090 -0.000007 -0.000001 -66.407800 -29.147500 -55.624000 24.328600 0.000019 0.000005 5.813610 -1.704090 -106.283000 22.291600 -0.000001 0.000005 17.284200 5.567690 -9.572640 12.994500 -0.242716 -4.980390 87.621600 7.590530 -72.545000 -5.348130 -0.000001 -0.000004 -63.486600 40.513600 -11.252400 -24.328900 0.000322 -0.000009 3.357780 9.278280 -20.002200 -22.291500 -0.000108 -0.000004 6.802900 5.355230 -1.534710 -2.192480 -6.469440 -0.000000 -175.615000 -6.070650 -2.376040 39.081100 -0.000007 -0.000012 -0.062249 0.216604 16.033900 40.985400 -0.000006 -0.000013 -1.746650 6.005440 -61.938700 11.754300 -0.000000 0.000003 -0.000002 -0.000029 -16.578600 -2.192510 6.469440 -0.000001 -179.109000 11.480800 179.149000 -39.081100 -0.002282 -0.040193 -0.048560 0.192714 15.070100 -40.985400 0.000008 0.000006 2.989680 5.391260 -63.045800 -11.754300 -0.000006 -0.000006 -0.006322 -0.073735 -19.574300
0.000000 0.000000 0.000000 0.000000 0.000000 -0.000000 -3.297710 92.929900 -1.200690 89.608800 0.675853 1.913560 15.735700 0.000005 -0.000001 91.220300 86.744100 -90.723700 8.984550 -0.406207 -0.000000 -1.255880 0.099566 0.994039 16.377300 -0.000001 -0.000001 2.900020 -2.670990 1.523210 6.456720 -0.000001 -0.000000 7.256720 -2.298890 -3.889900 12.994200 -0.242716 4.980390 -89.779400 -0.703882 -72.593400 5.348090 -0.000007 -0.000001 -60.773600 -26.337700 -48.637400 24.328600 0.000019 0.000005 5.291670 -1.551070 -106.292000 22.291600 -0.000001 0.000005 15.863100 5.572100 -9.800520 12.994500 -0.242716 -4.980390 87.583600 7.650730 -72.412900 -5.348130 -0.000001 -0.000004 -63.479100 40.428800 -11.230600 -24.328900 0.000322 -0.000009 3.382490 9.277070 -20.140300 -22.291500 -0.000108 -0.000004 6.803500 5.355750 -1.550620 -2.192480 -6.469440 -0.000000 -175.619000 -6.144530 -2.264880 39.081100 -0.000007 -0.000012 -0.062043 0.215758 16.043100 40.985400 -0.000006 -0.000013 -1.726800 5.945300 -61.996100 11.754300 -0.000000 0.000003 -0.000002 -0.000027 -16.578500 -2.192510 6.469440 -0.000001 -179.156000 11.373400 179.244000 -39.081100 -0.002282 -0.040193 -0.049500 0.196341 15.060100 -40.985400 0.000008 0.000006 2.962330 5.485530 -63.064500 -11.754300 -0.000006 -0.000006 -0.006478 -0.075113 -19.630500
0.000000 0.000000 0.000000 0.000000 0.000000 -0.000000 -3.258540 92.926800 -1.157730 89.592900 0.477961 1.885520 15.735700 0.000005 -0.000001 91.147300 86.736500 -90.654700 8.984550 -0.406207 -0.000000 -1.240650 0.091956 0.985857 16.377300 -0.000001 -0.000001 2.751190 -2.616200 1.692900 6.456720 -0.000001 -0.000000 7.218330 -2.204910 -3.995030 12.994200 -0.242716 4.980390 -89.950500 -0.154889 -72.280000 5.348090 -0.000007 -0.000001 -55.701800 -21.749000 -41.591000 24.328600 0.000019 0.000005 5.700460 -1.554240 -105.201000 22.291600 -0.000001 0.000005 14.197300 5.571880 -9.784140 12.994500 -0.242716 -4.980390 87.563900 7.674920 -72.330700 -5.348130 -0.000001 -0.000004 -63.512800 40.482300 -11.171100 -24.328900 0.000322 -0.000009 3.362170 9.168930 -20.244000 -22.291500 -0.000108 -0.000004 6.789190 5.357550 -1.605020 -2.192480 -6.469440 -0.000000 -175.638000 -6.252080 -2.251980 39.081100 -0.000007 -0.000012 -0.061557 0.213587 16.077200 40.985400 -0.000006 -0.000013 -1.712490 5.806010 -62.062200 11.754300 -0.000000 0.000003 -0.000001 -0.000018 -16.578200 -2.192510 6.469440 -0.000001 -179.156000 11.178000 179.221000 -39.081100 -0.002282 -0.040193 -0.048063 0.190829 15.072900 -40.985400 0.000008 0.000006 2.941390 5.513220 -63.076600 -11.754300 -0.000006 -0.000006 -0.006383 -0.074277 -19.596400
